#!OML:ASF E:\motion texture\Top Level 1\Subject 1\Session 1\male.ASF
:FULLY-SPECIFIED
:DEGREES
771
root -35.5525 17.9587 4.13651 128.556 -88.5915 -121.1
lowerback -0.590921 -0.171993 1.51545
upperback -3.15564 -0.218772 3.31896
thorax -2.90428 -0.137315 2.57274
lowerneck -13.1964 -0.360145 -3.86117
upperneck 7.0151 0.547475 -4.10937
head 4.25432 -0.117464 -0.61033
rclavicle 4.29872e-015 -3.18055e-014
rhumerus -26.3445 -40.1143 -15.2534
rradius 53.5479
rwrist -22.5808
rhand -9.39315 -25.9256
rfingers 7.12502
rthumb 16.568 -55.2383
lclavicle 4.29872e-015 -3.18055e-014
lhumerus -23.2205 26.9845 31.6407
lradius 59.7881
lwrist 22.7573
lhand -14.0224 24.8445
lfingers 7.12502
lthumb 12.1075 54.4742
rfemur -27.0258 -0.0849865 15.8461
rtibia 14.5599
rfoot 0.438058 -16.2781
rtoes 11.2345
lfemur 1.91581 -6.43329 -18.0773
ltibia 26.4875
lfoot -8.46517 0.309415
ltoes -21.6173
772
root -35.695 17.9699 4.09536 122.447 -88.4119 -115.006
lowerback -0.655119 -0.110637 1.74272
upperback -3.17708 -0.138393 3.42485
thorax -2.89364 -0.103582 2.55307
lowerneck -13.2628 -0.156969 -3.60045
upperneck 7.3025 0.797258 -4.12853
head 4.35535 0.00429551 -0.640027
rclavicle 6.75868e-015 -1.27222e-014
rhumerus -25.8763 -39.1997 -15.8926
rradius 53.7772
rwrist -21.9338
rhand -9.52319 -25.762
rfingers 7.12502
rthumb 16.4428 -55.0851
lclavicle 6.75868e-015 -1.27222e-014
lhumerus -23.1467 26.0016 32.4317
lradius 60.0127
lwrist 21.3419
lhand -14.3583 24.7086
lfingers 7.12502
lthumb 11.7837 54.3571
rfemur -26.5838 -0.054578 16.3
rtibia 14.6316
rfoot 0.664014 -16.0542
rtoes 11.8669
lfemur 1.69393 -6.31628 -17.6767
ltibia 27.4279
lfoot -7.68184 0.288814
ltoes -21.4992
773
root -35.8376 17.9815 4.05424 117.625 -88.2102 -110.207
lowerback -0.716839 -0.0472684 1.97538
upperback -3.19361 -0.055805 3.53354
thorax -2.87914 -0.0689245 2.5334
lowerneck -13.3356 0.0403429 -3.34357
upperneck 7.59369 1.03869 -4.13788
head 4.45919 0.122553 -0.666315
rclavicle 8.82107e-016 -2.38542e-014
rhumerus -25.4386 -38.2433 -16.5565
rradius 53.9705
rwrist -21.2517
rhand -9.66407 -25.608
rfingers 7.12502
rthumb 16.3071 -54.9424
lclavicle 8.82107e-016 -2.38542e-014
lhumerus -23.1092 24.9666 33.2634
lradius 60.1974
lwrist 19.8748
lhand -14.6762 24.6116
lfingers 7.12502
lthumb 11.477 54.2774
rfemur -26.1166 -0.0156327 16.7633
rtibia 14.6916
rfoot 0.858224 -15.8347
rtoes 12.4913
lfemur 1.43631 -6.17932 -17.2659
ltibia 28.4109
lfoot -6.87159 0.283446
ltoes -21.2982
774
root -35.9803 17.9934 4.01318 113.788 -87.9906 -106.398
lowerback -0.775617 0.0176488 2.21405
upperback -3.20721 0.0284093 3.64461
thorax -2.86303 -0.0336584 2.51297
lowerneck -13.4068 0.231466 -3.09095
upperneck 7.88563 1.27074 -4.13724
head 4.56357 0.237009 -0.689126
rclavicle 2.6339e-015 -3.02153e-014
rhumerus -25.0315 -37.2522 -17.2453
rradius 54.1241
rwrist -20.527
rhand -9.81171 -25.4677
rfingers 7.12502
rthumb 16.165 -54.8136
lclavicle 2.6339e-015 -3.02153e-014
lhumerus -23.1125 23.875 34.1359
lradius 60.3477
lwrist 18.3732
lhand -14.9756 24.5486
lfingers 7.12502
lthumb 11.1883 54.2303
rfemur -25.6257 0.0348565 17.2351
rtibia 14.7368
rfoot 1.01741 -15.6256
rtoes 13.0955
lfemur 1.14162 -6.023 -16.8439
ltibia 29.4341
lfoot -6.04136 0.293635
ltoes -21.0281
775
root -36.1228 18.0055 3.97217 110.7 -87.7574 -103.346
lowerback -0.831631 0.0843127 2.45641
upperback -3.21606 0.114443 3.75814
thorax -2.84334 0.00240803 2.49318
lowerneck -13.4812 0.415756 -2.84446
upperneck 8.17823 1.49295 -4.12605
head 4.66912 0.34738 -0.70803
rclavicle 3.50979e-015 -2.78299e-014
rhumerus -24.6549 -36.2352 -17.958
rradius 54.2348
rwrist -19.7566
rhand -9.96458 -25.3332
rfingers 7.12502
rthumb 16.0178 -54.6911
lclavicle 3.50979e-015 -2.78299e-014
lhumerus -23.1504 22.7322 35.055
lradius 60.462
lwrist 16.8453
lhand -15.2502 24.524
lfingers 7.12502
lthumb 10.9234 54.2199
rfemur -25.1131 0.0977829 17.7135
rtibia 14.7673
rfoot 1.13779 -15.4313
rtoes 13.6733
lfemur 0.809239 -5.84812 -16.4118
ltibia 30.4946
lfoot -5.19733 0.319245
ltoes -20.6881
776
root -36.2651 18.0178 3.93133 108.179 -87.5146 -100.867
lowerback -0.885007 0.152175 2.70158
upperback -3.22054 0.201552 3.87302
thorax -2.82033 0.038938 2.47338
lowerneck -13.5583 0.592738 -2.60649
upperneck 8.47059 1.70473 -4.10231
head 4.77538 0.45349 -0.722065
rclavicle 2.39163e-015 -4.6118e-014
rhumerus -24.3102 -35.1916 -18.6958
rradius 54.3039
rwrist -18.9444
rhand -10.1205 -25.1964
rfingers 7.12502
rthumb 15.8676 -54.5663
lclavicle 2.39163e-015 -4.6118e-014
lhumerus -23.2228 21.5424 36.0218
lradius 60.5398
lwrist 15.2983
lhand -15.5034 24.5324
lfingers 7.12502
lthumb 10.6792 54.241
rfemur -24.5801 0.168816 18.1964
rtibia 14.7824
rfoot 1.21817 -15.2493
rtoes 14.2113
lfemur 0.439615 -5.65592 -15.9733
ltibia 31.5884
lfoot -4.34931 0.359842
ltoes -20.2879
